<?xml version="1.0" standalone="no"?>
<!DOCTYPE svg PUBLIC "-//W3C//DTD SVG 20010904//EN"
 "http://www.w3.org/TR/2001/REC-SVG-20010904/DTD/svg10.dtd">
<svg version="1.0" xmlns="http://www.w3.org/2000/svg"
 width="1500.000000pt" height="1500.000000pt" viewBox="0 0 1500.000000 1500.000000"
 preserveAspectRatio="xMidYMid meet">

<g transform="translate(0.000000,1500.000000) scale(0.100000,-0.100000)"
fill="#000000" stroke="none">
<path d="M0 7500 l0 -7500 7500 0 7500 0 0 7500 0 7500 -7500 0 -7500 0 0
-7500z m5378 1433 c20 -16 46 -47 56 -68 19 -39 20 -86 29 -1693 9 -1593 9
-1654 -9 -1693 -10 -23 -34 -53 -53 -67 -29 -23 -44 -27 -100 -27 l-66 0
-1415 824 c-943 549 -1427 836 -1452 861 -62 64 -60 177 5 238 12 11 94 62
182 113 88 50 723 417 1410 814 688 398 1259 725 1270 728 44 12 106 -1 143
-30z m4408 8 c38 -23 59 -77 50 -126 -16 -82 -127 -115 -187 -56 -24 25 -29
38 -29 79 0 99 86 152 166 103z m-3180 -456 c104 -212 191 -385 194 -385 3 0
91 173 195 385 l188 385 119 0 118 0 0 -585 0 -585 -95 0 -95 0 0 433 0 432
-170 -345 c-93 -190 -175 -356 -183 -370 -11 -22 -20 -25 -77 -28 l-65 -2
-180 367 -180 368 -3 -427 -2 -428 -95 0 -95 0 0 585 0 585 118 0 119 0 189
-385z m1697 68 c183 -86 281 -275 248 -481 -15 -100 -48 -170 -112 -237 -93
-99 -192 -139 -344 -139 -261 0 -441 159 -461 407 -19 226 107 414 316 474 28
8 89 12 165 10 111 -3 125 -5 188 -34z m627 -285 c62 -178 117 -334 122 -348
8 -20 11 -22 17 -10 5 8 59 161 121 340 62 179 116 329 120 333 4 4 48 6 98 5
l91 -3 -125 -325 c-68 -179 -145 -378 -170 -443 l-46 -118 -100 3 -99 3 -165
425 c-90 233 -167 432 -170 442 -5 16 3 18 94 18 l99 0 113 -322z m890 -123
l0 -445 -95 0 -95 0 0 445 0 445 95 0 95 0 0 -445z m850 414 c143 -66 207
-178 217 -381 l6 -108 -338 0 -337 0 6 -27 c19 -77 107 -162 191 -184 89 -25
225 6 297 66 l31 26 29 -28 c17 -15 39 -41 51 -57 l20 -29 -34 -29 c-60 -52
-166 -97 -256 -109 -213 -28 -397 58 -478 225 -105 214 -45 469 140 596 80 55
146 71 280 67 103 -3 128 -7 175 -28z m-3796 -1217 c145 -54 214 -151 204
-286 -3 -34 -15 -80 -26 -102 -24 -48 -84 -104 -130 -123 l-33 -14 57 -23 c97
-39 154 -111 174 -216 11 -57 -1 -152 -26 -200 -22 -43 -80 -95 -136 -124 -91
-46 -157 -54 -480 -54 l-298 0 0 586 0 586 318 -4 c295 -4 321 -6 376 -26z
m985 -263 c210 -48 346 -244 328 -472 -19 -253 -200 -412 -467 -411 -298 2
-491 225 -451 519 25 178 142 314 311 361 55 15 219 17 279 3z m750 -135 c52
-80 98 -147 102 -149 3 -3 51 63 105 145 l99 150 103 0 c56 0 102 -3 102 -6 0
-3 -61 -98 -136 -212 -76 -114 -137 -211 -137 -217 0 -5 66 -108 147 -227 80
-119 146 -219 146 -222 0 -3 -48 -6 -107 -6 l-108 0 -103 160 c-57 88 -107
158 -111 155 -4 -2 -56 -74 -115 -160 l-109 -155 -103 0 c-57 0 -104 2 -104 5
0 3 69 105 154 227 l154 223 -144 212 c-79 117 -144 215 -144 218 0 3 48 5
108 5 l107 0 94 -146z m-189 -1313 c7 -15 6 -24 -6 -36 -19 -18 -33 -16 -48 7
-7 12 -6 21 3 32 18 22 38 20 51 -3z m-2030 -26 l0 -25 -125 0 -125 0 0 -70 0
-70 115 0 115 0 0 -25 c0 -24 0 -24 -112 -27 l-113 -3 -3 -72 -3 -73 131 0
130 0 0 -25 0 -25 -155 0 -155 0 0 220 0 220 150 0 150 0 0 -25z m580 -50 l0
-45 56 0 c47 0 55 -3 52 -17 -2 -14 -15 -19 -56 -21 l-52 -3 0 -103 c0 -118 8
-132 64 -123 26 4 36 2 41 -11 8 -22 -21 -42 -61 -42 -78 0 -94 31 -94 175 l0
105 -25 0 c-18 0 -25 5 -25 20 0 15 7 20 25 20 23 0 25 4 25 45 0 41 2 45 25
45 23 0 25 -4 25 -45z m850 0 l0 -45 55 0 c48 0 55 -2 55 -20 0 -18 -7 -20
-55 -20 l-55 0 0 -98 c0 -119 9 -138 64 -129 28 5 38 2 43 -10 13 -34 -71 -58
-117 -33 -27 15 -40 71 -40 178 0 85 -1 92 -20 92 -13 0 -20 7 -20 20 0 13 7
20 20 20 17 0 20 7 20 45 0 41 2 45 25 45 23 0 25 -4 25 -45z m2630 0 l0 -45
55 0 c48 0 55 -2 55 -20 0 -18 -7 -20 -55 -20 l-55 0 0 -98 c0 -119 9 -138 64
-129 28 5 38 2 43 -10 13 -34 -71 -58 -117 -33 -27 15 -40 71 -40 178 0 85 -1
92 -20 92 -13 0 -20 7 -20 20 0 13 7 20 20 20 17 0 20 7 20 45 0 41 2 45 25
45 23 0 25 -4 25 -45z m-3900 -67 c1 -27 2 -30 11 -15 26 44 141 64 187 31 43
-30 52 -65 52 -194 l0 -120 -25 0 -25 0 0 115 c0 110 -1 117 -25 140 -37 37
-106 35 -146 -4 -29 -29 -29 -31 -29 -140 l0 -111 -25 0 -25 0 0 165 0 165 25
0 c21 0 25 -5 25 -32z m816 16 c41 -20 74 -77 74 -129 l0 -35 -130 0 c-123 0
-130 -1 -130 -20 0 -11 12 -34 28 -50 37 -42 96 -51 151 -22 32 17 42 18 50 8
8 -10 6 -17 -7 -29 -64 -58 -194 -45 -244 24 -42 56 -42 152 0 208 41 57 138
78 208 45z m214 -16 c1 -27 2 -30 11 -15 12 21 61 47 89 47 13 0 20 -7 20 -20
0 -21 -4 -24 -53 -34 -49 -11 -67 -56 -67 -173 l0 -103 -25 0 -25 0 0 165 0
165 25 0 c21 0 25 -5 25 -32z m646 -2 l34 -34 0 -131 0 -131 -25 0 c-18 0 -25
5 -25 19 0 18 -1 18 -37 0 -48 -24 -109 -24 -150 1 -59 35 -55 126 7 157 14 7
60 13 103 13 l77 0 0 29 c0 62 -81 89 -155 54 -31 -15 -37 -15 -45 -3 -5 8 -6
18 -3 23 12 19 71 36 127 37 53 0 61 -3 92 -34z m194 -131 l0 -165 -25 0 -25
0 0 165 0 165 25 0 25 0 0 -165z m170 133 c1 -28 3 -31 13 -18 27 35 62 50
115 50 48 0 58 -4 88 -34 l34 -34 0 -131 0 -131 -25 0 -25 0 0 117 c0 106 -2
119 -22 140 -27 29 -102 32 -134 5 -36 -29 -44 -57 -44 -161 l0 -101 -25 0
-25 0 0 165 0 165 25 0 c21 0 25 -5 25 -32z m410 0 l0 -32 30 29 c24 23 41 30
88 33 52 4 61 1 90 -23 18 -15 32 -33 32 -40 0 -7 17 5 39 26 36 36 43 39 95
39 47 0 61 -4 88 -29 l33 -29 3 -136 4 -136 -26 0 -26 0 0 114 c0 99 -3 117
-21 140 -17 21 -29 26 -68 26 -40 0 -52 -5 -77 -31 -28 -29 -29 -34 -32 -140
-4 -108 -4 -109 -28 -109 -24 0 -24 0 -24 114 0 99 -3 117 -21 140 -17 21 -29
26 -68 26 -40 0 -52 -5 -77 -31 -28 -29 -29 -34 -32 -140 -4 -108 -4 -109 -28
-109 l-24 0 0 165 0 165 25 0 c21 0 25 -5 25 -32z m828 12 c35 -21 55 -59 67
-122 l7 -38 -136 0 c-124 0 -136 -2 -136 -18 0 -43 63 -92 117 -92 16 0 45 8
66 19 32 16 38 17 49 4 13 -16 5 -24 -49 -49 -77 -34 -177 -3 -215 66 -26 48
-21 143 10 187 44 62 153 84 220 43z m202 -12 c1 -28 3 -31 13 -18 27 35 62
50 115 50 48 0 58 -4 88 -34 l34 -34 0 -131 0 -131 -25 0 -25 0 0 117 c0 106
-2 119 -22 140 -27 29 -102 32 -134 5 -36 -29 -44 -57 -44 -161 l0 -101 -25 0
-25 0 0 165 0 165 25 0 c21 0 25 -5 25 -32z"/>
<path d="M8020 8421 c-127 -41 -192 -135 -193 -276 -1 -98 26 -167 85 -221 56
-50 101 -67 183 -67 82 0 127 17 183 67 57 52 84 120 84 216 0 123 -51 213
-147 262 -43 23 -152 33 -195 19z"/>
<path d="M10375 8424 c-73 -27 -154 -127 -155 -191 l0 -23 250 0 c282 0 265
-6 235 82 -20 56 -76 112 -134 133 -54 19 -143 18 -196 -1z"/>
<path d="M6380 7034 l0 -156 183 4 c166 3 186 5 230 27 112 55 116 200 7 258
-40 22 -55 23 -232 23 l-188 0 0 -156z"/>
<path d="M6380 6546 l0 -166 198 0 c188 0 199 1 249 25 67 30 93 71 93 142 0
61 -27 101 -94 136 -37 20 -58 22 -243 25 l-203 4 0 -166z"/>
<path d="M7650 6921 c-80 -26 -146 -88 -175 -164 -27 -71 -18 -208 18 -269 51
-88 123 -129 227 -131 153 -4 253 89 276 255 22 162 -94 306 -254 314 -37 2
-78 0 -92 -5z"/>
<path d="M7224 5461 c-17 -11 -36 -33 -42 -50 l-11 -31 115 0 c115 0 115 0
109 23 -4 12 -20 34 -36 50 -36 33 -89 36 -135 8z"/>
<path d="M8042 5328 c-20 -20 -14 -65 10 -82 59 -42 158 5 158 73 0 19 -6 21
-78 21 -47 0 -83 -5 -90 -12z"/>
<path d="M9678 5463 c-25 -16 -48 -51 -48 -73 0 -6 47 -10 110 -10 63 0 110 4
110 10 0 5 -5 21 -12 35 -23 52 -106 71 -160 38z"/>
</g>
</svg>
